<?xml version="1.0" encoding="UTF-8" standalone="no"?>
<svg
   xmlns:dc="http://purl.org/dc/elements/1.1/"
   xmlns:cc="http://creativecommons.org/ns#"
   xmlns:rdf="http://www.w3.org/1999/02/22-rdf-syntax-ns#"
   xmlns:svg="http://www.w3.org/2000/svg"
   xmlns="http://www.w3.org/2000/svg"
   id="svg8"
   version="1.1"
   viewBox="0 0 210 297"
   height="297mm"
   width="210mm">
  <defs
     id="defs2" />
  <metadata
     id="metadata5">
    <rdf:RDF>
      <cc:Work
         rdf:about="">
        <dc:format>image/svg+xml</dc:format>
        <dc:type
           rdf:resource="http://purl.org/dc/dcmitype/StillImage" />
        <dc:title></dc:title>
      </cc:Work>
    </rdf:RDF>
  </metadata>
  <g
     id="layer1">
    <g
       transform="translate(-3.2072339,-11.626224)"
       id="g29712">
      <g
         transform="matrix(1.4677687,0,0,1.4677687,-38.915513,-26.683348)"
         id="g29733">
        <path
           style="fill:#065f9d;stroke-width:0.26458332"
           d="M 49.873964,59.018553 C 47.24631,58.696368 44.455722,57.324485 43.652361,54.60761 42.822818,51.828594 43.136849,48.8703 42.97423,46.002946 c -0.03724,-1.612044 -0.07448,-3.224087 -0.111725,-4.83613 -1.525353,0.155638 -2.383625,-1.00472 -1.72714,-2.503042 0.527176,-0.574608 2.075921,0.09914 1.757599,-1.088304 0.10493,-2.176488 0.172059,-4.35544 0.327753,-6.528966 1.650949,0.610619 2.83933,2.454022 4.241233,3.598638 1.236174,1.577551 3.637863,2.716835 3.724343,4.907667 -0.469614,1.735715 -2.417161,2.616625 -3.011925,4.35662 -1.87166,3.372943 -1.395854,7.7239 0.988478,10.728622 1.489799,2.079207 3.846595,3.498747 6.415029,3.660744 2.266259,0.883031 -1.435831,1.088226 -2.326549,0.953824 -1.128291,-0.01897 -2.26077,-0.06043 -3.377362,-0.234066 z m 21.997333,-0.08017 c -0.453371,-2.978652 -0.185478,-6.037921 -0.228658,-9.051574 -0.01302,-2.319932 0.106375,-4.668761 0.01122,-6.970769 -0.641689,-1.378214 -1.237351,-2.864698 -2.528286,-3.769996 -0.242682,-1.429422 2.927062,-0.472183 3.972163,-0.746626 3.415362,-0.209761 6.237803,2.85164 6.80143,6.021667 0.21834,4.907739 0.0046,9.825361 0.005,14.737398 -2.568063,-0.0066 -5.153011,0.24466 -7.707841,-0.04491 l -0.201921,-0.07767 -0.123112,-0.09752 z m 10.242293,0.02167 C 82.005625,53.766998 82.388174,48.552688 81.916744,43.374309 81.548058,41.493367 80.1369,39.902182 79.006275,38.663718 c 1.670547,-0.512687 3.56878,-0.252069 5.315174,-0.119371 3.32923,0.389087 5.783975,3.685618 5.76102,6.942707 0.198228,4.441744 0.236611,8.897575 0.09983,13.3407 -1.395335,0.901403 -3.448416,0.270069 -5.09927,0.458983 -0.947822,-0.108643 -2.136378,0.16353 -2.969437,-0.326684 z M 61.780213,58.119342 c 0.685663,-2.283684 3.604108,-3.365131 4.244903,-5.886688 2.438975,-5.182555 -0.960861,-11.901671 -6.427715,-13.339529 -1.076021,-0.09733 -1.63067,-0.88917 -0.191144,-0.741582 2.749812,0.104837 6.053573,-0.177861 8.042765,2.124673 1.592215,1.444177 2.211775,3.583903 2.174947,5.681568 0.115685,4.31111 -0.02102,8.624229 -0.03855,12.936115 -2.601736,0.04881 -5.203472,0.09763 -7.805208,0.14644 10e-7,-0.306999 10e-7,-0.613998 2e-6,-0.920997 z M 54.504172,56.81909 c -3.305364,-0.994243 -6.221703,-3.834879 -6.411781,-7.418337 -0.356286,-3.212658 0.785932,-6.800077 3.693567,-8.51425 2.310473,-1.716206 5.486855,-1.870251 8.172043,-1.102449 2.147482,1.125222 4.403231,2.65971 5.056785,5.146686 1.064262,2.345289 0.864075,5.047569 -0.352766,7.294479 -1.681638,3.673598 -6.309869,5.629623 -10.157848,4.593871 z"
           id="path29716" />
        <ellipse
           style="fill:#ff0000;stroke:#ff0000;stroke-width:0.22905959"
           id="path29726"
           cx="56.73811"
           cy="48.478378"
           rx="8.8855028"
           ry="9.0308208" />
      </g>
    </g>
  </g>
</svg>
