<svg xmlns="http://www.w3.org/2000/svg" viewBox="0 0 210 297" height="297mm" width="210mm"><g transform="matrix(1.46777 0 0 1.46777 -42.1227469 -38.309572)"><path d="M49.873964 59.018553c-2.627654-.322185-5.418242-1.694068-6.221603-4.410943-.829543-2.779016-.515512-5.73731-.678131-8.604664-.03724-1.612044-.07448-3.224087-.111725-4.83613-1.525353.155638-2.383625-1.00472-1.72714-2.503042.527176-.574608 2.075921.09914 1.757599-1.088304.10493-2.176488.172059-4.35544.327753-6.528966 1.650949.610619 2.83933 2.454022 4.241233 3.598638 1.236174 1.577551 3.637863 2.716835 3.724343 4.907667-.469614 1.735715-2.417161 2.616625-3.011925 4.35662-1.87166 3.372943-1.395854 7.7239.988478 10.728622 1.489799 2.079207 3.846595 3.498747 6.415029 3.660744 2.266259.883031-1.435831 1.088226-2.326549.953824-1.128291-.01897-2.26077-.06043-3.377362-.234066zm21.997333-.08017c-.453371-2.978652-.185478-6.037921-.228658-9.051574-.01302-2.319932.106375-4.668761.01122-6.970769-.641689-1.378214-1.237351-2.864698-2.528286-3.769996-.242682-1.429422 2.927062-.472183 3.972163-.746626 3.415362-.209761 6.237803 2.85164 6.80143 6.021667.21834 4.907739.0046 9.825361.005 14.737398-2.568063-.0066-5.153011.24466-7.707841-.04491l-.201921-.07767-.123112-.09752zm10.242293.02167c-.107965-5.193055.274584-10.407365-.196846-15.585744-.368686-1.880942-1.779844-3.472127-2.910469-4.710591 1.670547-.512687 3.56878-.252069 5.315174-.119371 3.32923.389087 5.783975 3.685618 5.76102 6.942707.198228 4.441744.236611 8.897575.09983 13.3407-1.395335.901403-3.448416.270069-5.09927.458983-.947822-.108643-2.136378.16353-2.969437-.326684zm-20.333377-.840711c.685663-2.283684 3.604108-3.365131 4.244903-5.886688 2.438975-5.182555-.960861-11.901671-6.427715-13.339529-1.076021-.09733-1.63067-.88917-.191144-.741582 2.749812.104837 6.053573-.177861 8.042765 2.124673 1.592215 1.444177 2.211775 3.583903 2.174947 5.681568.115685 4.31111-.02102 8.624229-.03855 12.936115-2.601736.04881-5.203472.09763-7.805208.14644.000001-.306999.000001-.613998.000002-.920997zm-7.276041-1.300252c-3.305364-.994243-6.221703-3.834879-6.411781-7.418337-.356286-3.212658.785932-6.800077 3.693567-8.51425 2.310473-1.716206 5.486855-1.870251 8.172043-1.102449 2.147482 1.125222 4.403231 2.65971 5.056785 5.146686 1.064262 2.345289.864075 5.047569-.352766 7.294479-1.681638 3.673598-6.309869 5.629623-10.157848 4.593871z" fill="#065f9d"/><ellipse cx="56.73811" cy="48.478378" rx="8.8855028" ry="9.0308208" fill="red" stroke="red" stroke-width=".22905959"/></g></svg>