<svg xmlns="http://www.w3.org/2000/svg" height="45.14563093312174" width="76.43689279936518" style=""><rect id="backgroundrect" width="100%" height="100%" x="0" y="0" fill="none" stroke="none" class="" style=""/><g class="currentLayer" style=""><title>Layer 1</title><g id="svg_1" class=""><path d="M14.090469167983862,42.00540962424286 c-3.85679171158,-0.4728934774500003 -7.952733060340001,-2.4865021883600003 -9.13188223531,-6.47424980711 c-1.21757832911,-4.07895631432 -0.7566530482400003,-8.4210514987 -0.9953403378700002,-12.629667679279999 c-0.05465975480000008,-2.3661098218800003 -0.10931950959999998,-4.73221817599 -0.16398660325000022,-7.0983265301 c-2.23886737281,0.2284407872600003 -3.49861326625,-1.4746978743999999 -2.5350442778000004,-3.67388995634 c0.7737731175200006,-0.8433923841600002 3.0469745661700003,0.14551471780000022 2.57975108423,-1.5973799620800002 c0.15401310610000027,-3.19458379176 0.25254303842999964,-6.3927841687999996 0.4810660208100003,-9.58302042582 c2.4232134137300005,0.8962482496300009 4.1674833941000005,3.6019398709400003 6.22515456041,5.28197289726 c1.8144191119800002,2.31548203127 5.3395461755100015,3.9876889079500004 5.4664789251100006,7.20332639259 c-0.68928534078,2.54763040555 -3.54783640097,3.84060367625 -4.4208131572500005,6.394516137400001 c-2.7471663982,4.950704547110001 -2.0487926255800004,11.336908703 1.45085835406,15.74714951294 c2.18668227823,3.05179765839 5.645916743150001,5.13535588419 9.41578711533,5.37313022088 c3.3263469724299997,1.29608641087 -2.10746966687,1.5972654760200014 -3.41483882573,1.3999942524800002 c-1.6560716810700002,-0.02784359690000004 -3.3182903829,-0.08869734110000012 -4.957190622740001,-0.3435550528200003 zm32.28702545741,-0.11767112090000019 c-0.6654443526700012,-4.3719760460399995 -0.2722390440599997,-8.86227930617 -0.3356173526600003,-13.28562876998 c-0.01911036540000002,-3.40512659164 0.15613403375000023,-6.85266733297 0.01646837940000004,-10.23148561513 c-0.941851863530001,-2.02290116278 -1.8161466772700003,-4.2047177834600005 -3.71094234222,-5.53348702892 c-0.35620135914,-2.0980627289400005 4.29625379174,-0.69305604191 5.83022168651,-1.0958752440200001 c5.01296588274,-0.3078809029700008 9.15566010931,4.1855516428 9.9829349111,8.83842217259 c0.3204729018000009,7.203432072030001 0.006751742000000009,14.421370114970001 0.007338850000000006,21.631110662460003 c-3.76932582951,-0.00968728200000002 -7.56343495547,0.35910460820000034 -11.31333778457,-0.06591755070000002 l-0.2963735861700005,-0.11400169590000012 l-0.18070010024000016,-0.14313693040000022 zm15.033330396610001,0.03180657590000001 c-0.1584677880500003,-7.62221033735 0.40302615768000033,-15.27561812605 -0.2889246534200004,-22.87628747088 c-0.5411462502200006,-2.7607902393400003 -2.61240162788,-5.0962838467900005 -4.27189908413,-6.91406415207 c2.45197877019,-0.75250659799 5.2381482206,-0.36997931613000035 7.80145294198,-0.17520917267000016 c4.8865439171,0.5710902259900001 8.48954498575,5.409639531860001 8.4558523254,10.190297053390001 c0.2909531115600003,6.51945859088 0.34729052747000033,13.05959365775 0.1465274791000002,19.581079239 c-2.04803085295,1.32305228131 -5.06148155232,0.3963991761300005 -7.4845555279000004,0.6736814779100012 c-1.3911846969400008,-0.15946293611000037 -3.13571153706,0.2400244281000002 -4.35845054549,-0.4794969746800005 zm-29.84472075929,-1.23397038447 c1.0063955815100003,-3.35192286468 5.29000159916,-4.93923832787 6.23054127631,-8.64030404576 c3.5798543357500003,-7.6067987523500005 -1.41032294997,-17.46891564367 -9.43440724555,-19.579360480330003 c-1.5793513431700001,-0.1428580541000002 -2.3934485059000004,-1.3050970509000002 -0.28055542888000007,-1.0884718121399999 c4.03609155924,0.15387660349 8.88525284221,-0.26105903997 11.80492918405,3.11853128921 c2.3370054105499998,2.1197196752900003 3.2463769917499996,5.2603453063100005 3.19232195819,8.33923506336 c0.1697989724500003,6.327717924700001 -0.030852525400000025,12.65838459933 -0.05658253350000001,18.98724151355 c-3.8187500487199997,0.07164185370000002 -7.637500097439999,0.14329838510000037 -11.45625014616,0.21494023880000046 c0.0000014677700000000046,-0.45060392223000006 0.0000014677700000000046,-0.9012078444600002 0.0000029355400000000046,-1.35181176669 zm-10.67955469857,-1.9084708780400002 c-4.85151411828,-1.45932004811 -9.13202901231,-5.62872034983 -9.41101979837,-10.88841249849 c-0.5229459022200008,-4.7154430326600005 1.1535674116399999,-9.98094901829 5.421306835589999,-12.4969607225 c3.39124295521,-2.5189956806200002 8.05344116335,-2.7450983102700004 11.99467955411,-1.61814156873 c3.15200965514,1.6515670949399999 6.46293036487,3.9038425467 7.4221973194499995,7.55415131022 c1.56209183574,3.44234483553 1.2682633627500002,7.4086703511300005 -0.51777935182,10.70661744183 c-2.46825780726,5.39199693646 -9.26143642213,8.26299175071 -14.90938455896,6.74274603767 z" fill="#065f9d" stroke-width="0" id="svg_2"/><ellipse cx="45.16252753401221" cy="44.17887638990012" rx="8.885502815246582" ry="9.030820846557617" fill="red" stroke="red" stroke-width="0.3362067944143" transform="matrix(1.46777,0,0,1.46777,-42.1227469,-38.309572) " id="svg_3"/></g></g></svg>